<mxfile host="app.diagrams.net" modified="2021-05-24T00:56:11.543Z" agent="5.0 (X11)" etag="P6itnY9K4cmnftLUMCuP" version="14.6.13" type="github" pages="2">
  <diagram id="6a731a19-8d31-9384-78a2-239565b7b9f0" name="schematicKshetra">
    <mxGraphModel dx="938" dy="617" grid="1" gridSize="10" guides="1" tooltips="1" connect="1" arrows="1" fold="1" page="1" pageScale="1" pageWidth="827" pageHeight="1169" background="#DAD2D8" math="0" shadow="0">
      <root>
        <mxCell id="0" />
        <mxCell id="1" parent="0" />
        <mxCell id="R8b1aDfxQuAAKfUh75f4-1803" style="edgeStyle=orthogonalEdgeStyle;rounded=0;orthogonalLoop=1;jettySize=auto;html=1;exitX=0.5;exitY=0;exitDx=0;exitDy=0;entryX=0;entryY=0.5;entryDx=0;entryDy=0;fontStyle=1;sketch=1;labelBackgroundColor=#DAD2D8;strokeColor=#A8201A;fontColor=#143642;" parent="1" source="1753" target="1756" edge="1">
          <mxGeometry relative="1" as="geometry">
            <Array as="points">
              <mxPoint x="225" y="291" />
            </Array>
          </mxGeometry>
        </mxCell>
        <mxCell id="R8b1aDfxQuAAKfUh75f4-1804" style="edgeStyle=orthogonalEdgeStyle;rounded=0;orthogonalLoop=1;jettySize=auto;html=1;exitX=1;exitY=0.5;exitDx=0;exitDy=0;entryX=0;entryY=0.5;entryDx=0;entryDy=0;fontStyle=1;sketch=1;labelBackgroundColor=#DAD2D8;strokeColor=#A8201A;fontColor=#143642;" parent="1" source="1753" target="1755" edge="1">
          <mxGeometry relative="1" as="geometry" />
        </mxCell>
        <mxCell id="R8b1aDfxQuAAKfUh75f4-1809" style="edgeStyle=orthogonalEdgeStyle;rounded=0;orthogonalLoop=1;jettySize=auto;html=1;exitX=0.5;exitY=1;exitDx=0;exitDy=0;entryX=0;entryY=0.5;entryDx=0;entryDy=0;fontStyle=1;sketch=1;labelBackgroundColor=#DAD2D8;strokeColor=#A8201A;fontColor=#143642;" parent="1" source="1753" target="1754" edge="1">
          <mxGeometry relative="1" as="geometry">
            <Array as="points">
              <mxPoint x="225" y="525" />
            </Array>
          </mxGeometry>
        </mxCell>
        <mxCell id="1753" value="Atma" style="rounded=1;whiteSpace=wrap;html=1;shadow=0;labelBackgroundColor=none;strokeColor=none;strokeWidth=3;fillColor=#FAE5C7;fontFamily=Helvetica;fontSize=14;align=center;spacing=5;fontStyle=1;arcSize=7;perimeterSpacing=2;sketch=1;fontColor=#143642;" parent="1" vertex="1">
          <mxGeometry x="150" y="385.5" width="150" height="60" as="geometry" />
        </mxCell>
        <mxCell id="R8b1aDfxQuAAKfUh75f4-1800" style="edgeStyle=orthogonalEdgeStyle;rounded=0;orthogonalLoop=1;jettySize=auto;html=1;exitX=1;exitY=0.5;exitDx=0;exitDy=0;entryX=0;entryY=0.5;entryDx=0;entryDy=0;fontStyle=1;sketch=1;labelBackgroundColor=#DAD2D8;strokeColor=#A8201A;fontColor=#143642;" parent="1" source="1754" target="R8b1aDfxQuAAKfUh75f4-1799" edge="1">
          <mxGeometry relative="1" as="geometry" />
        </mxCell>
        <mxCell id="RUIsUkhrUAs7gqbz3xSs-1785" style="edgeStyle=orthogonalEdgeStyle;rounded=0;orthogonalLoop=1;jettySize=auto;html=1;exitX=0.5;exitY=1;exitDx=0;exitDy=0;entryX=0;entryY=0.5;entryDx=0;entryDy=0;fontStyle=1;sketch=1;labelBackgroundColor=#DAD2D8;strokeColor=#A8201A;fontColor=#143642;" parent="1" source="1754" target="R8b1aDfxQuAAKfUh75f4-1830" edge="1">
          <mxGeometry relative="1" as="geometry">
            <Array as="points">
              <mxPoint x="395" y="630" />
            </Array>
          </mxGeometry>
        </mxCell>
        <mxCell id="Gi-tXt0EZ82ZUDJ-_srg-1788" value="ILLUSION" style="edgeLabel;html=1;align=center;verticalAlign=middle;resizable=0;points=[];fontColor=#143642;fontSize=12;fontStyle=1;sketch=1;labelBackgroundColor=#DAD2D8;" parent="RUIsUkhrUAs7gqbz3xSs-1785" vertex="1" connectable="0">
          <mxGeometry x="0.1696" relative="1" as="geometry">
            <mxPoint x="20" as="offset" />
          </mxGeometry>
        </mxCell>
        <mxCell id="1754" value="Sakaam Karma" style="rounded=1;whiteSpace=wrap;html=1;shadow=0;labelBackgroundColor=none;strokeColor=none;strokeWidth=3;fillColor=#FAE5C7;fontFamily=Helvetica;fontSize=14;align=center;spacing=5;fontStyle=1;arcSize=7;perimeterSpacing=2;sketch=1;fontColor=#143642;" parent="1" vertex="1">
          <mxGeometry x="320" y="495" width="150" height="60" as="geometry" />
        </mxCell>
        <mxCell id="R8b1aDfxQuAAKfUh75f4-1807" style="edgeStyle=orthogonalEdgeStyle;rounded=0;orthogonalLoop=1;jettySize=auto;html=1;exitX=0.5;exitY=1;exitDx=0;exitDy=0;entryX=0.5;entryY=0;entryDx=0;entryDy=0;fontStyle=1;sketch=1;labelBackgroundColor=#DAD2D8;strokeColor=#A8201A;fontColor=#143642;" parent="1" source="1755" target="1754" edge="1">
          <mxGeometry relative="1" as="geometry" />
        </mxCell>
        <mxCell id="R8b1aDfxQuAAKfUh75f4-1808" style="edgeStyle=orthogonalEdgeStyle;rounded=0;orthogonalLoop=1;jettySize=auto;html=1;exitX=0.5;exitY=0;exitDx=0;exitDy=0;entryX=0.5;entryY=1;entryDx=0;entryDy=0;fontStyle=1;sketch=1;labelBackgroundColor=#DAD2D8;strokeColor=#A8201A;fontColor=#143642;" parent="1" source="1755" target="1756" edge="1">
          <mxGeometry relative="1" as="geometry" />
        </mxCell>
        <mxCell id="1755" value="Knowledge" style="rounded=1;whiteSpace=wrap;html=1;shadow=0;labelBackgroundColor=none;strokeColor=none;strokeWidth=3;fillColor=#FAE5C7;fontFamily=Helvetica;fontSize=14;align=center;spacing=5;fontStyle=1;arcSize=7;perimeterSpacing=2;sketch=1;fontColor=#143642;" parent="1" vertex="1">
          <mxGeometry x="320" y="385.5" width="150" height="60" as="geometry" />
        </mxCell>
        <mxCell id="R8b1aDfxQuAAKfUh75f4-1794" style="edgeStyle=orthogonalEdgeStyle;rounded=0;orthogonalLoop=1;jettySize=auto;html=1;exitX=1;exitY=0.5;exitDx=0;exitDy=0;entryX=0;entryY=0.5;entryDx=0;entryDy=0;fontStyle=1;sketch=1;labelBackgroundColor=#DAD2D8;strokeColor=#A8201A;fontColor=#143642;" parent="1" source="1756" target="R8b1aDfxQuAAKfUh75f4-1793" edge="1">
          <mxGeometry relative="1" as="geometry" />
        </mxCell>
        <mxCell id="1756" value="Nishkaam Karma" style="rounded=1;whiteSpace=wrap;html=1;shadow=0;labelBackgroundColor=none;strokeColor=none;strokeWidth=3;fillColor=#FAE5C7;fontFamily=Helvetica;fontSize=14;align=center;spacing=5;fontStyle=1;arcSize=7;perimeterSpacing=2;sketch=1;fontColor=#143642;" parent="1" vertex="1">
          <mxGeometry x="320" y="260.5" width="150" height="60" as="geometry" />
        </mxCell>
        <mxCell id="R8b1aDfxQuAAKfUh75f4-1915" style="edgeStyle=elbowEdgeStyle;shape=link;rounded=0;orthogonalLoop=1;jettySize=auto;elbow=vertical;html=1;exitX=0.5;exitY=0;exitDx=0;exitDy=0;entryX=0.5;entryY=1;entryDx=0;entryDy=0;fontStyle=1;sketch=1;labelBackgroundColor=#DAD2D8;strokeColor=#A8201A;fontColor=#143642;" parent="1" source="1760" target="1762" edge="1">
          <mxGeometry relative="1" as="geometry" />
        </mxCell>
        <mxCell id="1760" value="&lt;div&gt;Kaam Yoga&lt;/div&gt;&lt;div&gt;SURVIVAL&lt;br&gt;&lt;/div&gt;" style="rounded=1;whiteSpace=wrap;html=1;shadow=0;labelBackgroundColor=none;strokeColor=none;strokeWidth=3;fillColor=#FAE5C7;fontFamily=Helvetica;fontSize=14;align=center;spacing=5;fontStyle=1;arcSize=7;perimeterSpacing=2;sketch=1;fontColor=#143642;" parent="1" vertex="1">
          <mxGeometry x="495" y="860" width="150" height="60" as="geometry" />
        </mxCell>
        <mxCell id="R8b1aDfxQuAAKfUh75f4-1908" style="edgeStyle=elbowEdgeStyle;rounded=0;orthogonalLoop=1;jettySize=auto;elbow=vertical;html=1;exitX=1;exitY=0.5;exitDx=0;exitDy=0;entryX=0;entryY=0.5;entryDx=0;entryDy=0;fontStyle=1;sketch=1;labelBackgroundColor=#DAD2D8;strokeColor=#A8201A;fontColor=#143642;" parent="1" source="1762" target="R8b1aDfxQuAAKfUh75f4-1898" edge="1">
          <mxGeometry relative="1" as="geometry" />
        </mxCell>
        <mxCell id="R8b1aDfxQuAAKfUh75f4-1909" style="edgeStyle=elbowEdgeStyle;rounded=0;orthogonalLoop=1;jettySize=auto;elbow=vertical;html=1;exitX=0;exitY=0.5;exitDx=0;exitDy=0;fontStyle=1;sketch=1;labelBackgroundColor=#DAD2D8;strokeColor=#A8201A;fontColor=#143642;" parent="1" source="1762" target="R8b1aDfxQuAAKfUh75f4-1839" edge="1">
          <mxGeometry relative="1" as="geometry" />
        </mxCell>
        <mxCell id="1762" value="Matrix" style="rounded=1;whiteSpace=wrap;html=1;shadow=0;labelBackgroundColor=none;strokeColor=none;strokeWidth=3;fillColor=#FAE5C7;fontFamily=Helvetica;fontSize=14;align=center;spacing=5;arcSize=7;perimeterSpacing=2;fontStyle=1;sketch=1;fontColor=#143642;" parent="1" vertex="1">
          <mxGeometry x="495" y="780" width="150" height="60" as="geometry" />
        </mxCell>
        <mxCell id="1764" value="&lt;div&gt;&amp;nbsp;Karm Yoga&lt;/div&gt;&lt;div&gt;EXIT&lt;/div&gt;" style="rounded=1;whiteSpace=wrap;html=1;shadow=0;labelBackgroundColor=none;strokeColor=none;strokeWidth=3;fillColor=#FAE5C7;fontFamily=Helvetica;fontSize=14;align=center;spacing=5;fontStyle=1;arcSize=7;perimeterSpacing=2;sketch=1;fontColor=#143642;" parent="1" vertex="1">
          <mxGeometry x="495" y="160" width="150" height="60" as="geometry" />
        </mxCell>
        <mxCell id="R8b1aDfxQuAAKfUh75f4-1913" style="edgeStyle=elbowEdgeStyle;rounded=0;orthogonalLoop=1;jettySize=auto;elbow=vertical;html=1;exitX=0.5;exitY=1;exitDx=0;exitDy=0;entryX=0.5;entryY=1;entryDx=0;entryDy=0;fontStyle=1;startArrow=none;sketch=1;labelBackgroundColor=#DAD2D8;strokeColor=#A8201A;fontColor=#143642;" parent="1" source="1771" target="R8b1aDfxQuAAKfUh75f4-1780" edge="1">
          <mxGeometry relative="1" as="geometry">
            <Array as="points" />
          </mxGeometry>
        </mxCell>
        <mxCell id="Gi-tXt0EZ82ZUDJ-_srg-1782" style="edgeStyle=orthogonalEdgeStyle;rounded=0;orthogonalLoop=1;jettySize=auto;html=1;exitX=0;exitY=0.5;exitDx=0;exitDy=0;fontColor=#143642;sketch=1;labelBackgroundColor=#DAD2D8;strokeColor=#A8201A;" parent="1" source="1772" target="R8b1aDfxQuAAKfUh75f4-1780" edge="1">
          <mxGeometry relative="1" as="geometry" />
        </mxCell>
        <mxCell id="1772" value="Fickle Mind" style="rounded=1;whiteSpace=wrap;html=1;shadow=0;labelBackgroundColor=none;strokeColor=none;strokeWidth=3;fillColor=#FAE5C7;fontFamily=Helvetica;fontSize=14;align=center;spacing=5;fontStyle=1;arcSize=7;perimeterSpacing=2;sketch=1;fontColor=#143642;" parent="1" vertex="1">
          <mxGeometry x="1050" y="360" width="150" height="60" as="geometry" />
        </mxCell>
        <mxCell id="Gi-tXt0EZ82ZUDJ-_srg-1784" style="edgeStyle=orthogonalEdgeStyle;rounded=0;orthogonalLoop=1;jettySize=auto;html=1;exitX=0;exitY=0.5;exitDx=0;exitDy=0;entryX=1;entryY=0.5;entryDx=0;entryDy=0;fontColor=#143642;sketch=1;labelBackgroundColor=#DAD2D8;strokeColor=#A8201A;" parent="1" source="1778" target="R8b1aDfxQuAAKfUh75f4-1779" edge="1">
          <mxGeometry relative="1" as="geometry" />
        </mxCell>
        <mxCell id="1778" value="&lt;div&gt;Stable Mana&lt;/div&gt;&lt;div&gt;Sthit Prajna&lt;br&gt;&lt;/div&gt;" style="rounded=1;whiteSpace=wrap;html=1;shadow=0;labelBackgroundColor=none;strokeColor=none;strokeWidth=3;fillColor=#FAE5C7;fontFamily=Helvetica;fontSize=14;align=center;spacing=5;fontStyle=1;arcSize=7;perimeterSpacing=2;sketch=1;fontColor=#143642;" parent="1" vertex="1">
          <mxGeometry x="1050" y="260.5" width="150" height="60" as="geometry" />
        </mxCell>
        <mxCell id="R8b1aDfxQuAAKfUh75f4-1791" style="edgeStyle=orthogonalEdgeStyle;rounded=0;orthogonalLoop=1;jettySize=auto;html=1;exitX=0;exitY=0.5;exitDx=0;exitDy=0;entryX=1;entryY=0.5;entryDx=0;entryDy=0;fontStyle=1;sketch=1;labelBackgroundColor=#DAD2D8;strokeColor=#A8201A;fontColor=#143642;" parent="1" source="R8b1aDfxQuAAKfUh75f4-1779" target="R8b1aDfxQuAAKfUh75f4-1789" edge="1">
          <mxGeometry relative="1" as="geometry" />
        </mxCell>
        <mxCell id="R8b1aDfxQuAAKfUh75f4-1779" value="&lt;div&gt;Stable &lt;br&gt;&lt;/div&gt;&lt;div&gt;Samttva Buddhi&lt;br&gt;&lt;/div&gt;" style="rounded=1;whiteSpace=wrap;html=1;shadow=0;labelBackgroundColor=none;strokeColor=none;strokeWidth=3;fillColor=#FAE5C7;fontFamily=Helvetica;fontSize=14;align=center;spacing=5;fontStyle=1;arcSize=7;perimeterSpacing=2;sketch=1;fontColor=#143642;" parent="1" vertex="1">
          <mxGeometry x="880" y="260.5" width="150" height="60" as="geometry" />
        </mxCell>
        <mxCell id="R8b1aDfxQuAAKfUh75f4-1795" style="edgeStyle=orthogonalEdgeStyle;rounded=0;orthogonalLoop=1;jettySize=auto;html=1;exitX=0;exitY=0.5;exitDx=0;exitDy=0;fontStyle=1;sketch=1;labelBackgroundColor=#DAD2D8;strokeColor=#A8201A;fontColor=#143642;" parent="1" source="R8b1aDfxQuAAKfUh75f4-1789" target="R8b1aDfxQuAAKfUh75f4-1793" edge="1">
          <mxGeometry relative="1" as="geometry" />
        </mxCell>
        <mxCell id="R8b1aDfxQuAAKfUh75f4-1789" value="Expansive /Encompassing" style="rounded=1;whiteSpace=wrap;html=1;shadow=0;labelBackgroundColor=none;strokeColor=none;strokeWidth=3;fillColor=#FAE5C7;fontFamily=Helvetica;fontSize=14;align=center;spacing=5;fontStyle=1;arcSize=7;perimeterSpacing=2;sketch=1;fontColor=#143642;" parent="1" vertex="1">
          <mxGeometry x="680" y="260.5" width="150" height="60" as="geometry" />
        </mxCell>
        <mxCell id="R8b1aDfxQuAAKfUh75f4-1916" style="edgeStyle=elbowEdgeStyle;shape=link;rounded=0;orthogonalLoop=1;jettySize=auto;elbow=vertical;html=1;exitX=0.5;exitY=0;exitDx=0;exitDy=0;entryX=0.5;entryY=1;entryDx=0;entryDy=0;fontStyle=1;sketch=1;labelBackgroundColor=#DAD2D8;strokeColor=#A8201A;fontColor=#143642;" parent="1" source="R8b1aDfxQuAAKfUh75f4-1793" target="1764" edge="1">
          <mxGeometry relative="1" as="geometry" />
        </mxCell>
        <mxCell id="R8b1aDfxQuAAKfUh75f4-1793" value="&lt;div&gt;Nishkaam &lt;br&gt;&lt;/div&gt;&lt;div&gt;Yajna&lt;br&gt;&lt;/div&gt;" style="rounded=1;whiteSpace=wrap;html=1;shadow=0;labelBackgroundColor=none;strokeColor=none;strokeWidth=3;fillColor=#FAE5C7;fontFamily=Helvetica;fontSize=14;align=center;spacing=5;fontStyle=1;arcSize=7;perimeterSpacing=2;sketch=1;fontColor=#143642;" parent="1" vertex="1">
          <mxGeometry x="495" y="260.5" width="150" height="60" as="geometry" />
        </mxCell>
        <mxCell id="RUIsUkhrUAs7gqbz3xSs-1780" style="edgeStyle=orthogonalEdgeStyle;rounded=0;orthogonalLoop=1;jettySize=auto;html=1;exitX=0.5;exitY=1;exitDx=0;exitDy=0;entryX=0.5;entryY=0;entryDx=0;entryDy=0;fontStyle=1;sketch=1;labelBackgroundColor=#DAD2D8;strokeColor=#A8201A;fontColor=#143642;" parent="1" source="R8b1aDfxQuAAKfUh75f4-1799" target="R8b1aDfxQuAAKfUh75f4-1830" edge="1">
          <mxGeometry relative="1" as="geometry" />
        </mxCell>
        <mxCell id="R8b1aDfxQuAAKfUh75f4-1799" value="&lt;div&gt;Sakaam &lt;br&gt;&lt;/div&gt;&lt;div&gt;Yajna (SAR)&lt;br&gt;&lt;/div&gt;" style="rounded=1;whiteSpace=wrap;html=1;shadow=0;labelBackgroundColor=none;strokeColor=none;strokeWidth=3;fillColor=#FAE5C7;fontFamily=Helvetica;fontSize=14;align=center;spacing=5;fontStyle=1;arcSize=7;perimeterSpacing=2;sketch=1;fontColor=#143642;" parent="1" vertex="1">
          <mxGeometry x="495" y="495" width="150" height="60" as="geometry" />
        </mxCell>
        <mxCell id="R8b1aDfxQuAAKfUh75f4-1895" style="edgeStyle=elbowEdgeStyle;rounded=0;orthogonalLoop=1;jettySize=auto;elbow=vertical;html=1;exitX=0.5;exitY=0;exitDx=0;exitDy=0;entryX=0.5;entryY=1;entryDx=0;entryDy=0;fontStyle=1;sketch=1;labelBackgroundColor=#DAD2D8;strokeColor=#A8201A;fontColor=#143642;" parent="1" source="R8b1aDfxQuAAKfUh75f4-1801" target="R8b1aDfxQuAAKfUh75f4-1860" edge="1">
          <mxGeometry relative="1" as="geometry" />
        </mxCell>
        <mxCell id="R8b1aDfxQuAAKfUh75f4-1801" value="&lt;div&gt;Unfavorable&lt;/div&gt;&lt;div&gt;Outcomes&lt;br&gt;&lt;/div&gt;" style="rounded=1;whiteSpace=wrap;html=1;shadow=0;labelBackgroundColor=none;strokeColor=none;strokeWidth=3;fillColor=#FAE5C7;fontFamily=Helvetica;fontSize=14;align=center;spacing=5;fontStyle=1;arcSize=7;perimeterSpacing=2;sketch=1;fontColor=#143642;" parent="1" vertex="1">
          <mxGeometry x="680" y="495" width="150" height="60" as="geometry" />
        </mxCell>
        <mxCell id="R8b1aDfxQuAAKfUh75f4-1865" style="edgeStyle=elbowEdgeStyle;rounded=0;orthogonalLoop=1;jettySize=auto;html=1;exitX=1;exitY=0.5;exitDx=0;exitDy=0;entryX=0;entryY=0.5;entryDx=0;entryDy=0;fontStyle=1;sketch=1;labelBackgroundColor=#DAD2D8;strokeColor=#A8201A;fontColor=#143642;" parent="1" source="R8b1aDfxQuAAKfUh75f4-1816" target="R8b1aDfxQuAAKfUh75f4-1864" edge="1">
          <mxGeometry relative="1" as="geometry" />
        </mxCell>
        <mxCell id="R8b1aDfxQuAAKfUh75f4-1816" value="&lt;div&gt;Favorable&lt;/div&gt;&lt;div&gt;Outcomes&lt;br&gt;&lt;/div&gt;" style="rounded=1;whiteSpace=wrap;html=1;shadow=0;labelBackgroundColor=none;strokeColor=none;strokeWidth=3;fillColor=#FAE5C7;fontFamily=Helvetica;fontSize=14;align=center;spacing=5;fontStyle=1;arcSize=7;perimeterSpacing=2;sketch=1;fontColor=#143642;" parent="1" vertex="1">
          <mxGeometry x="680" y="600" width="150" height="60" as="geometry" />
        </mxCell>
        <mxCell id="R8b1aDfxQuAAKfUh75f4-1832" style="edgeStyle=elbowEdgeStyle;rounded=0;orthogonalLoop=1;jettySize=auto;html=1;exitX=1;exitY=0.5;exitDx=0;exitDy=0;entryX=0;entryY=0.5;entryDx=0;entryDy=0;fontStyle=1;sketch=1;labelBackgroundColor=#DAD2D8;strokeColor=#A8201A;fontColor=#143642;" parent="1" source="R8b1aDfxQuAAKfUh75f4-1830" target="R8b1aDfxQuAAKfUh75f4-1801" edge="1">
          <mxGeometry relative="1" as="geometry" />
        </mxCell>
        <mxCell id="R8b1aDfxQuAAKfUh75f4-1833" style="edgeStyle=elbowEdgeStyle;rounded=0;orthogonalLoop=1;jettySize=auto;html=1;exitX=1;exitY=0.5;exitDx=0;exitDy=0;entryX=0;entryY=0.5;entryDx=0;entryDy=0;fontStyle=1;sketch=1;labelBackgroundColor=#DAD2D8;strokeColor=#A8201A;fontColor=#143642;" parent="1" source="R8b1aDfxQuAAKfUh75f4-1830" target="R8b1aDfxQuAAKfUh75f4-1816" edge="1">
          <mxGeometry relative="1" as="geometry" />
        </mxCell>
        <mxCell id="R8b1aDfxQuAAKfUh75f4-1830" value="Manifestations" style="rounded=1;whiteSpace=wrap;html=1;shadow=0;labelBackgroundColor=none;strokeColor=none;strokeWidth=3;fillColor=#FAE5C7;fontFamily=Helvetica;fontSize=14;align=center;spacing=5;fontStyle=1;arcSize=7;perimeterSpacing=2;sketch=1;fontColor=#143642;" parent="1" vertex="1">
          <mxGeometry x="495" y="600" width="150" height="60" as="geometry" />
        </mxCell>
        <mxCell id="R8b1aDfxQuAAKfUh75f4-1911" style="edgeStyle=elbowEdgeStyle;rounded=0;orthogonalLoop=1;jettySize=auto;elbow=vertical;html=1;exitX=0;exitY=0.5;exitDx=0;exitDy=0;entryX=1;entryY=0.5;entryDx=0;entryDy=0;fontStyle=1;sketch=1;labelBackgroundColor=#DAD2D8;strokeColor=#A8201A;fontColor=#143642;" parent="1" source="R8b1aDfxQuAAKfUh75f4-1838" target="R8b1aDfxQuAAKfUh75f4-1852" edge="1">
          <mxGeometry relative="1" as="geometry" />
        </mxCell>
        <mxCell id="R8b1aDfxQuAAKfUh75f4-1920" style="edgeStyle=elbowEdgeStyle;rounded=0;orthogonalLoop=1;jettySize=auto;elbow=vertical;html=1;exitX=1;exitY=0.5;exitDx=0;exitDy=0;entryX=1;entryY=0.5;entryDx=0;entryDy=0;fontStyle=1;sketch=1;labelBackgroundColor=#DAD2D8;strokeColor=#A8201A;fontColor=#143642;" parent="1" source="R8b1aDfxQuAAKfUh75f4-1838" target="1772" edge="1">
          <mxGeometry relative="1" as="geometry">
            <Array as="points">
              <mxPoint x="1250" y="710" />
            </Array>
          </mxGeometry>
        </mxCell>
        <mxCell id="R8b1aDfxQuAAKfUh75f4-1838" value="Interface" style="rounded=1;whiteSpace=wrap;html=1;shadow=0;labelBackgroundColor=none;strokeColor=none;strokeWidth=3;fillColor=#FAE5C7;fontFamily=Helvetica;fontSize=14;align=center;spacing=5;arcSize=7;perimeterSpacing=2;fontStyle=1;sketch=1;fontColor=#143642;" parent="1" vertex="1">
          <mxGeometry x="880" y="690" width="150" height="60" as="geometry" />
        </mxCell>
        <mxCell id="RUIsUkhrUAs7gqbz3xSs-1781" style="edgeStyle=orthogonalEdgeStyle;rounded=0;orthogonalLoop=1;jettySize=auto;html=1;exitX=0.5;exitY=0;exitDx=0;exitDy=0;entryX=0;entryY=0.5;entryDx=0;entryDy=0;fontStyle=1;sketch=1;labelBackgroundColor=#DAD2D8;strokeColor=#A8201A;fontColor=#143642;" parent="1" source="R8b1aDfxQuAAKfUh75f4-1839" target="1754" edge="1">
          <mxGeometry relative="1" as="geometry">
            <mxPoint x="358" y="525" as="targetPoint" />
            <Array as="points">
              <mxPoint x="265" y="525" />
            </Array>
          </mxGeometry>
        </mxCell>
        <mxCell id="RUIsUkhrUAs7gqbz3xSs-1790" style="edgeStyle=orthogonalEdgeStyle;rounded=0;orthogonalLoop=1;jettySize=auto;html=1;exitX=0.5;exitY=0;exitDx=0;exitDy=0;entryX=0;entryY=0.5;entryDx=0;entryDy=0;fontStyle=1;sketch=1;labelBackgroundColor=#DAD2D8;strokeColor=#A8201A;fontColor=#143642;" parent="1" source="R8b1aDfxQuAAKfUh75f4-1839" target="RUIsUkhrUAs7gqbz3xSs-1788" edge="1">
          <mxGeometry relative="1" as="geometry">
            <mxPoint x="358" y="720" as="targetPoint" />
            <Array as="points">
              <mxPoint x="265" y="720" />
            </Array>
          </mxGeometry>
        </mxCell>
        <mxCell id="R8b1aDfxQuAAKfUh75f4-1839" value="Desires" style="rounded=1;whiteSpace=wrap;html=1;shadow=0;labelBackgroundColor=none;strokeColor=none;strokeWidth=3;fillColor=#FAE5C7;fontFamily=Helvetica;fontSize=14;align=center;spacing=5;arcSize=7;perimeterSpacing=2;fontStyle=1;sketch=1;fontColor=#143642;" parent="1" vertex="1">
          <mxGeometry x="190" y="790" width="150" height="60" as="geometry" />
        </mxCell>
        <mxCell id="R8b1aDfxQuAAKfUh75f4-1903" style="edgeStyle=elbowEdgeStyle;rounded=0;orthogonalLoop=1;jettySize=auto;elbow=vertical;html=1;exitX=0;exitY=0.5;exitDx=0;exitDy=0;fontStyle=1;sketch=1;labelBackgroundColor=#DAD2D8;strokeColor=#A8201A;fontColor=#143642;" parent="1" source="R8b1aDfxQuAAKfUh75f4-1852" target="R8b1aDfxQuAAKfUh75f4-1855" edge="1">
          <mxGeometry relative="1" as="geometry" />
        </mxCell>
        <mxCell id="R8b1aDfxQuAAKfUh75f4-1852" value="Duality" style="rounded=1;whiteSpace=wrap;html=1;shadow=0;labelBackgroundColor=none;strokeColor=none;strokeWidth=3;fillColor=#FAE5C7;fontFamily=Helvetica;fontSize=14;align=center;spacing=5;arcSize=7;perimeterSpacing=2;fontStyle=1;sketch=1;fontColor=#143642;" parent="1" vertex="1">
          <mxGeometry x="690" y="690" width="150" height="60" as="geometry" />
        </mxCell>
        <mxCell id="R8b1aDfxQuAAKfUh75f4-1857" style="edgeStyle=elbowEdgeStyle;rounded=0;orthogonalLoop=1;jettySize=auto;html=1;exitX=0.5;exitY=0;exitDx=0;exitDy=0;entryX=0.5;entryY=1;entryDx=0;entryDy=0;fontStyle=1;sketch=1;labelBackgroundColor=#DAD2D8;strokeColor=#A8201A;fontColor=#143642;" parent="1" source="R8b1aDfxQuAAKfUh75f4-1855" target="R8b1aDfxQuAAKfUh75f4-1830" edge="1">
          <mxGeometry relative="1" as="geometry" />
        </mxCell>
        <mxCell id="R8b1aDfxQuAAKfUh75f4-1855" value="ID " style="rounded=1;whiteSpace=wrap;html=1;shadow=0;labelBackgroundColor=none;strokeColor=none;strokeWidth=3;fillColor=#FAE5C7;fontFamily=Helvetica;fontSize=14;align=center;spacing=5;arcSize=7;perimeterSpacing=2;fontStyle=1;sketch=1;fontColor=#143642;" parent="1" vertex="1">
          <mxGeometry x="495" y="690" width="150" height="60" as="geometry" />
        </mxCell>
        <mxCell id="R8b1aDfxQuAAKfUh75f4-1890" style="edgeStyle=elbowEdgeStyle;rounded=0;orthogonalLoop=1;jettySize=auto;elbow=vertical;html=1;exitX=0.5;exitY=0;exitDx=0;exitDy=0;entryX=0;entryY=0.5;entryDx=0;entryDy=0;fontStyle=1;sketch=1;labelBackgroundColor=#DAD2D8;strokeColor=#A8201A;fontColor=#143642;" parent="1" source="R8b1aDfxQuAAKfUh75f4-1860" target="R8b1aDfxQuAAKfUh75f4-1780" edge="1">
          <mxGeometry relative="1" as="geometry">
            <Array as="points">
              <mxPoint x="820" y="390" />
            </Array>
          </mxGeometry>
        </mxCell>
        <mxCell id="Gi-tXt0EZ82ZUDJ-_srg-1785" value="&lt;b&gt;&lt;font style=&quot;font-size: 12px&quot;&gt;ANGER&lt;/font&gt;&lt;/b&gt;" style="edgeLabel;html=1;align=center;verticalAlign=middle;resizable=0;points=[];fontColor=#143642;sketch=1;labelBackgroundColor=#DAD2D8;" parent="R8b1aDfxQuAAKfUh75f4-1890" vertex="1" connectable="0">
          <mxGeometry x="0.2482" relative="1" as="geometry">
            <mxPoint as="offset" />
          </mxGeometry>
        </mxCell>
        <mxCell id="R8b1aDfxQuAAKfUh75f4-1860" value="Pain" style="rounded=1;whiteSpace=wrap;html=1;shadow=0;labelBackgroundColor=none;strokeColor=none;strokeWidth=3;fillColor=#FAE5C7;fontFamily=Helvetica;fontSize=14;align=center;spacing=5;fontStyle=1;arcSize=7;perimeterSpacing=2;sketch=1;fontColor=#143642;" parent="1" vertex="1">
          <mxGeometry x="680" y="410" width="150" height="60" as="geometry" />
        </mxCell>
        <mxCell id="R8b1aDfxQuAAKfUh75f4-1919" style="edgeStyle=elbowEdgeStyle;rounded=0;orthogonalLoop=1;jettySize=auto;elbow=vertical;html=1;exitX=0.5;exitY=0;exitDx=0;exitDy=0;entryX=0.5;entryY=1;entryDx=0;entryDy=0;fontStyle=1;sketch=1;labelBackgroundColor=#DAD2D8;strokeColor=#A8201A;fontColor=#143642;" parent="1" source="R8b1aDfxQuAAKfUh75f4-1864" target="R8b1aDfxQuAAKfUh75f4-1780" edge="1">
          <mxGeometry relative="1" as="geometry" />
        </mxCell>
        <mxCell id="RUIsUkhrUAs7gqbz3xSs-1778" value="&lt;font style=&quot;font-size: 12px&quot;&gt;GREED&lt;/font&gt;" style="edgeLabel;html=1;align=center;verticalAlign=middle;resizable=0;points=[];fontStyle=1;sketch=1;labelBackgroundColor=#DAD2D8;fontColor=#143642;" parent="R8b1aDfxQuAAKfUh75f4-1919" vertex="1" connectable="0">
          <mxGeometry x="-0.4773" relative="1" as="geometry">
            <mxPoint as="offset" />
          </mxGeometry>
        </mxCell>
        <mxCell id="R8b1aDfxQuAAKfUh75f4-1864" value="Happiness" style="rounded=1;whiteSpace=wrap;html=1;shadow=0;labelBackgroundColor=none;strokeColor=none;strokeWidth=3;fillColor=#FAE5C7;fontFamily=Helvetica;fontSize=14;align=center;spacing=5;fontStyle=1;arcSize=7;perimeterSpacing=2;sketch=1;fontColor=#143642;" parent="1" vertex="1">
          <mxGeometry x="880" y="600" width="150" height="60" as="geometry" />
        </mxCell>
        <mxCell id="R8b1aDfxQuAAKfUh75f4-1894" style="edgeStyle=elbowEdgeStyle;rounded=0;orthogonalLoop=1;jettySize=auto;elbow=vertical;html=1;exitX=0.5;exitY=0;exitDx=0;exitDy=0;entryX=0.5;entryY=0;entryDx=0;entryDy=0;entryPerimeter=0;fontStyle=1;sketch=1;labelBackgroundColor=#DAD2D8;strokeColor=#A8201A;fontColor=#143642;" parent="1" source="R8b1aDfxQuAAKfUh75f4-1780" target="R8b1aDfxQuAAKfUh75f4-1892" edge="1">
          <mxGeometry relative="1" as="geometry">
            <Array as="points">
              <mxPoint x="870" y="340" />
            </Array>
          </mxGeometry>
        </mxCell>
        <mxCell id="R8b1aDfxQuAAKfUh75f4-1780" value="&lt;div&gt;Trader &lt;br&gt;&lt;/div&gt;&lt;div&gt;Vyvsaytmika Budhi&lt;br&gt;&lt;/div&gt;" style="rounded=1;whiteSpace=wrap;html=1;shadow=0;labelBackgroundColor=none;strokeColor=none;strokeWidth=3;fillColor=#FAE5C7;fontFamily=Helvetica;fontSize=14;align=center;spacing=5;fontStyle=1;arcSize=7;perimeterSpacing=2;sketch=1;fontColor=#143642;" parent="1" vertex="1">
          <mxGeometry x="880" y="360" width="150" height="60" as="geometry" />
        </mxCell>
        <mxCell id="R8b1aDfxQuAAKfUh75f4-1893" style="edgeStyle=elbowEdgeStyle;rounded=0;orthogonalLoop=1;jettySize=auto;elbow=vertical;html=1;exitX=0.5;exitY=0.88;exitDx=0;exitDy=0;exitPerimeter=0;entryX=0.5;entryY=0;entryDx=0;entryDy=0;fontStyle=1;sketch=1;labelBackgroundColor=#DAD2D8;strokeColor=#A8201A;fontColor=#143642;" parent="1" source="R8b1aDfxQuAAKfUh75f4-1892" target="R8b1aDfxQuAAKfUh75f4-1799" edge="1">
          <mxGeometry relative="1" as="geometry" />
        </mxCell>
        <mxCell id="R8b1aDfxQuAAKfUh75f4-1892" value="&lt;div&gt;Infinite&lt;/div&gt;&lt;div&gt;Options&lt;br&gt;&lt;/div&gt;" style="strokeWidth=2;html=1;shape=mxgraph.flowchart.multi-document;whiteSpace=wrap;fillColor=#FAE5C7;fontStyle=1;sketch=1;strokeColor=#0F8B8D;fontColor=#143642;" parent="1" vertex="1">
          <mxGeometry x="513" y="374" width="114" height="80" as="geometry" />
        </mxCell>
        <mxCell id="R8b1aDfxQuAAKfUh75f4-1907" style="edgeStyle=elbowEdgeStyle;rounded=0;orthogonalLoop=1;jettySize=auto;elbow=vertical;html=1;exitX=0.5;exitY=0;exitDx=0;exitDy=0;entryX=0.5;entryY=1;entryDx=0;entryDy=0;fontStyle=1;sketch=1;labelBackgroundColor=#DAD2D8;strokeColor=#A8201A;fontColor=#143642;" parent="1" source="R8b1aDfxQuAAKfUh75f4-1898" target="R8b1aDfxQuAAKfUh75f4-1838" edge="1">
          <mxGeometry relative="1" as="geometry" />
        </mxCell>
        <mxCell id="R8b1aDfxQuAAKfUh75f4-1898" value="Senses" style="rounded=1;whiteSpace=wrap;html=1;shadow=0;labelBackgroundColor=none;strokeColor=none;strokeWidth=3;fillColor=#FAE5C7;fontFamily=Helvetica;fontSize=14;align=center;spacing=5;arcSize=7;perimeterSpacing=2;fontStyle=1;sketch=1;fontColor=#143642;" parent="1" vertex="1">
          <mxGeometry x="880" y="780" width="150" height="60" as="geometry" />
        </mxCell>
        <mxCell id="R8b1aDfxQuAAKfUh75f4-1917" value="" style="endArrow=classic;startArrow=classic;html=1;exitX=0.5;exitY=0;exitDx=0;exitDy=0;entryX=0.5;entryY=1;entryDx=0;entryDy=0;fontStyle=1;sketch=1;labelBackgroundColor=#DAD2D8;strokeColor=#A8201A;fontColor=#143642;" parent="1" source="1762" target="R8b1aDfxQuAAKfUh75f4-1855" edge="1">
          <mxGeometry width="50" height="50" relative="1" as="geometry">
            <mxPoint x="440" y="640" as="sourcePoint" />
            <mxPoint x="560" y="755" as="targetPoint" />
            <Array as="points" />
          </mxGeometry>
        </mxCell>
        <mxCell id="RUIsUkhrUAs7gqbz3xSs-1791" style="edgeStyle=orthogonalEdgeStyle;rounded=0;orthogonalLoop=1;jettySize=auto;html=1;exitX=1;exitY=0.5;exitDx=0;exitDy=0;entryX=0;entryY=0.5;entryDx=0;entryDy=0;fontStyle=1;sketch=1;labelBackgroundColor=#DAD2D8;strokeColor=#A8201A;fontColor=#143642;" parent="1" source="RUIsUkhrUAs7gqbz3xSs-1788" target="R8b1aDfxQuAAKfUh75f4-1855" edge="1">
          <mxGeometry relative="1" as="geometry" />
        </mxCell>
        <mxCell id="RUIsUkhrUAs7gqbz3xSs-1788" value="&amp;nbsp;Ego" style="rounded=1;whiteSpace=wrap;html=1;shadow=0;labelBackgroundColor=none;strokeColor=none;strokeWidth=3;fillColor=#FAE5C7;fontFamily=Helvetica;fontSize=14;align=center;spacing=5;arcSize=7;perimeterSpacing=2;fontStyle=1;sketch=1;fontColor=#143642;" parent="1" vertex="1">
          <mxGeometry x="320" y="690" width="150" height="60" as="geometry" />
        </mxCell>
        <mxCell id="Gi-tXt0EZ82ZUDJ-_srg-1778" value="Sattva" style="ellipse;whiteSpace=wrap;html=1;aspect=fixed;fillColor=#FAE5C7;strokeColor=#0F8B8D;fontStyle=1;fontColor=#143642;sketch=1;" parent="1" vertex="1">
          <mxGeometry x="670" y="170" width="80" height="80" as="geometry" />
        </mxCell>
        <mxCell id="Gi-tXt0EZ82ZUDJ-_srg-1779" value="Rajsa" style="ellipse;whiteSpace=wrap;html=1;aspect=fixed;fillColor=#FAE5C7;strokeColor=#0F8B8D;fontStyle=1;fontColor=#143642;sketch=1;" parent="1" vertex="1">
          <mxGeometry x="150" y="520" width="80" height="80" as="geometry" />
        </mxCell>
        <mxCell id="Gi-tXt0EZ82ZUDJ-_srg-1780" value="Tamsa" style="ellipse;whiteSpace=wrap;html=1;aspect=fixed;fillColor=#FAE5C7;strokeColor=#0F8B8D;fontStyle=1;fontColor=#143642;sketch=1;" parent="1" vertex="1">
          <mxGeometry x="1120" y="750" width="80" height="80" as="geometry" />
        </mxCell>
        <mxCell id="Gi-tXt0EZ82ZUDJ-_srg-1783" style="edgeStyle=orthogonalEdgeStyle;rounded=0;orthogonalLoop=1;jettySize=auto;html=1;exitX=1;exitY=0.5;exitDx=0;exitDy=0;entryX=1;entryY=0.5;entryDx=0;entryDy=0;fontColor=#143642;sketch=1;labelBackgroundColor=#DAD2D8;strokeColor=#A8201A;" parent="1" source="1771" target="1778" edge="1">
          <mxGeometry relative="1" as="geometry">
            <Array as="points">
              <mxPoint x="1230" y="460" />
              <mxPoint x="1230" y="291" />
            </Array>
          </mxGeometry>
        </mxCell>
        <mxCell id="1771" value="&lt;div&gt;Prakriti&lt;/div&gt;&lt;div&gt;Intelligence&lt;br&gt;&lt;/div&gt;" style="rounded=1;whiteSpace=wrap;html=1;shadow=0;labelBackgroundColor=none;strokeColor=none;strokeWidth=3;fillColor=#FAE5C7;fontFamily=Helvetica;fontSize=14;align=center;spacing=5;fontStyle=1;arcSize=7;perimeterSpacing=2;sketch=1;fontColor=#143642;" parent="1" vertex="1">
          <mxGeometry x="1050" y="429.9999999999999" width="150" height="60" as="geometry" />
        </mxCell>
        <mxCell id="Gi-tXt0EZ82ZUDJ-_srg-1789" value="Schematic Diagram of the Field -&amp;nbsp; Kshetra" style="rounded=1;whiteSpace=wrap;html=1;shadow=0;labelBackgroundColor=none;strokeColor=#0F8B8D;strokeWidth=3;fillColor=#FAE5C7;fontFamily=Helvetica;fontSize=15;align=center;spacing=5;arcSize=7;perimeterSpacing=2;fontStyle=1;fontColor=#143642;sketch=1;" parent="1" vertex="1">
          <mxGeometry x="150" y="160" width="320" height="40" as="geometry" />
        </mxCell>
        <mxCell id="Gi-tXt0EZ82ZUDJ-_srg-1790" value="" style="endArrow=none;html=1;fontSize=15;fontColor=#143642;sketch=1;labelBackgroundColor=#DAD2D8;strokeColor=#A8201A;" parent="1" edge="1">
          <mxGeometry width="50" height="50" relative="1" as="geometry">
            <mxPoint x="680" y="460" as="sourcePoint" />
            <mxPoint x="730" y="410" as="targetPoint" />
          </mxGeometry>
        </mxCell>
        <mxCell id="Gi-tXt0EZ82ZUDJ-_srg-1792" value="" style="endArrow=none;html=1;fontSize=15;fontColor=#143642;sketch=1;labelBackgroundColor=#DAD2D8;strokeColor=#A8201A;" parent="1" edge="1">
          <mxGeometry width="50" height="50" relative="1" as="geometry">
            <mxPoint x="680" y="470" as="sourcePoint" />
            <mxPoint x="730" y="420" as="targetPoint" />
          </mxGeometry>
        </mxCell>
        <mxCell id="Gi-tXt0EZ82ZUDJ-_srg-1793" value="" style="endArrow=none;html=1;fontSize=15;fontColor=#143642;entryX=0;entryY=0.75;entryDx=0;entryDy=0;sketch=1;labelBackgroundColor=#DAD2D8;strokeColor=#A8201A;" parent="1" target="Gi-tXt0EZ82ZUDJ-_srg-1789" edge="1">
          <mxGeometry width="50" height="50" relative="1" as="geometry">
            <mxPoint x="148" y="960" as="sourcePoint" />
            <mxPoint x="190" y="630" as="targetPoint" />
          </mxGeometry>
        </mxCell>
        <mxCell id="Gi-tXt0EZ82ZUDJ-_srg-1794" value="" style="endArrow=none;html=1;fontSize=15;fontColor=#143642;sketch=1;labelBackgroundColor=#DAD2D8;strokeColor=#A8201A;" parent="1" edge="1">
          <mxGeometry width="50" height="50" relative="1" as="geometry">
            <mxPoint x="1270" y="960" as="sourcePoint" />
            <mxPoint x="1270" y="160" as="targetPoint" />
          </mxGeometry>
        </mxCell>
        <mxCell id="Gi-tXt0EZ82ZUDJ-_srg-1795" value="" style="endArrow=none;html=1;fontSize=15;fontColor=#143642;sketch=1;labelBackgroundColor=#DAD2D8;strokeColor=#A8201A;" parent="1" edge="1">
          <mxGeometry width="50" height="50" relative="1" as="geometry">
            <mxPoint x="150" y="920" as="sourcePoint" />
            <mxPoint x="1270" y="920" as="targetPoint" />
          </mxGeometry>
        </mxCell>
        <mxCell id="Gi-tXt0EZ82ZUDJ-_srg-1796" value="" style="endArrow=none;html=1;fontSize=15;fontColor=#143642;sketch=1;labelBackgroundColor=#DAD2D8;strokeColor=#A8201A;" parent="1" edge="1">
          <mxGeometry width="50" height="50" relative="1" as="geometry">
            <mxPoint x="150" y="960" as="sourcePoint" />
            <mxPoint x="1270" y="960" as="targetPoint" />
          </mxGeometry>
        </mxCell>
        <mxCell id="Gi-tXt0EZ82ZUDJ-_srg-1797" value="" style="endArrow=none;html=1;fontSize=15;fontColor=#143642;sketch=1;labelBackgroundColor=#DAD2D8;strokeColor=#A8201A;" parent="1" edge="1">
          <mxGeometry width="50" height="50" relative="1" as="geometry">
            <mxPoint x="160" y="159" as="sourcePoint" />
            <mxPoint x="1270" y="159" as="targetPoint" />
          </mxGeometry>
        </mxCell>
        <mxCell id="Gi-tXt0EZ82ZUDJ-_srg-1798" value="Ashutosh" style="text;html=1;align=center;verticalAlign=middle;resizable=0;points=[];autosize=1;strokeColor=none;fontSize=10;fontColor=#143642;sketch=1;" parent="1" vertex="1">
          <mxGeometry x="160" y="930" width="60" height="20" as="geometry" />
        </mxCell>
        <mxCell id="Gi-tXt0EZ82ZUDJ-_srg-1799" value="Fig. 1" style="text;html=1;align=center;verticalAlign=middle;resizable=0;points=[];autosize=1;strokeColor=none;fontSize=10;fontColor=#143642;sketch=1;" parent="1" vertex="1">
          <mxGeometry x="1190" y="930" width="40" height="20" as="geometry" />
        </mxCell>
        <mxCell id="Gi-tXt0EZ82ZUDJ-_srg-1800" value="May 2021" style="text;html=1;align=center;verticalAlign=middle;resizable=0;points=[];autosize=1;strokeColor=none;fontSize=10;fontColor=#143642;sketch=1;" parent="1" vertex="1">
          <mxGeometry x="620" y="930" width="60" height="20" as="geometry" />
        </mxCell>
      </root>
    </mxGraphModel>
  </diagram>
  <diagram id="xgRsOhlO84QOsLghRSaK" name="Spin">
    <mxGraphModel dx="938" dy="617" grid="1" gridSize="10" guides="1" tooltips="1" connect="1" arrows="1" fold="1" page="1" pageScale="1" pageWidth="850" pageHeight="1100" background="#283618" math="0" shadow="0">
      <root>
        <mxCell id="5vlTtG9s8QNCjLJYxkkR-0" />
        <mxCell id="5vlTtG9s8QNCjLJYxkkR-1" parent="5vlTtG9s8QNCjLJYxkkR-0" />
        <mxCell id="5vlTtG9s8QNCjLJYxkkR-2" value="" style="shape=flexArrow;endArrow=classic;startArrow=classic;html=1;fontSize=15;fontColor=#FEFAE0;strokeColor=#DDA15E;labelBackgroundColor=#283618;sketch=1;" edge="1" parent="5vlTtG9s8QNCjLJYxkkR-1">
          <mxGeometry width="100" height="100" relative="1" as="geometry">
            <mxPoint x="170" y="189" as="sourcePoint" />
            <mxPoint x="470" y="189" as="targetPoint" />
          </mxGeometry>
        </mxCell>
        <mxCell id="5vlTtG9s8QNCjLJYxkkR-3" value="" style="endArrow=classic;html=1;fontSize=15;fontColor=#FEFAE0;strokeColor=#DDA15E;labelBackgroundColor=#283618;sketch=1;" edge="1" parent="5vlTtG9s8QNCjLJYxkkR-1">
          <mxGeometry width="50" height="50" relative="1" as="geometry">
            <mxPoint x="320" y="219" as="sourcePoint" />
            <mxPoint x="460" y="219" as="targetPoint" />
          </mxGeometry>
        </mxCell>
        <mxCell id="5vlTtG9s8QNCjLJYxkkR-4" value="Asakta" style="edgeLabel;html=1;align=center;verticalAlign=middle;resizable=0;points=[];fontSize=15;fontColor=#FEFAE0;labelBackgroundColor=#283618;sketch=1;" vertex="1" connectable="0" parent="5vlTtG9s8QNCjLJYxkkR-3">
          <mxGeometry x="-0.2429" y="-2" relative="1" as="geometry">
            <mxPoint as="offset" />
          </mxGeometry>
        </mxCell>
        <mxCell id="5vlTtG9s8QNCjLJYxkkR-5" value="" style="endArrow=classic;html=1;fontSize=15;fontColor=#FEFAE0;strokeColor=#DDA15E;labelBackgroundColor=#283618;sketch=1;" edge="1" parent="5vlTtG9s8QNCjLJYxkkR-1">
          <mxGeometry width="50" height="50" relative="1" as="geometry">
            <mxPoint x="320" y="219" as="sourcePoint" />
            <mxPoint x="180" y="219" as="targetPoint" />
          </mxGeometry>
        </mxCell>
        <mxCell id="5vlTtG9s8QNCjLJYxkkR-6" value="Virakta" style="edgeLabel;html=1;align=center;verticalAlign=middle;resizable=0;points=[];fontSize=15;fontColor=#FEFAE0;labelBackgroundColor=#283618;sketch=1;" vertex="1" connectable="0" parent="5vlTtG9s8QNCjLJYxkkR-5">
          <mxGeometry x="-0.1714" y="3" relative="1" as="geometry">
            <mxPoint as="offset" />
          </mxGeometry>
        </mxCell>
        <mxCell id="5vlTtG9s8QNCjLJYxkkR-7" value="Actor" style="shape=umlActor;verticalLabelPosition=bottom;verticalAlign=top;html=1;outlineConnect=0;fontSize=15;fontColor=#FEFAE0;fillColor=#BC6C25;strokeColor=#DDA15E;sketch=1;" vertex="1" parent="5vlTtG9s8QNCjLJYxkkR-1">
          <mxGeometry x="300" y="169" width="30" height="60" as="geometry" />
        </mxCell>
        <mxCell id="5vlTtG9s8QNCjLJYxkkR-18" value="" style="verticalLabelPosition=bottom;html=1;verticalAlign=top;strokeWidth=2;shape=mxgraph.lean_mapping.physical_pull;pointerEvents=1;fontSize=15;fontColor=#FEFAE0;fillColor=#BC6C25;strokeColor=#DDA15E;sketch=1;" vertex="1" parent="5vlTtG9s8QNCjLJYxkkR-1">
          <mxGeometry x="487" y="112" width="190" height="50" as="geometry" />
        </mxCell>
        <mxCell id="5vlTtG9s8QNCjLJYxkkR-23" style="edgeStyle=orthogonalEdgeStyle;rounded=0;orthogonalLoop=1;jettySize=auto;html=1;exitX=0.5;exitY=1;exitDx=0;exitDy=0;fontSize=15;fontColor=#FEFAE0;strokeColor=#DDA15E;labelBackgroundColor=#283618;sketch=1;" edge="1" parent="5vlTtG9s8QNCjLJYxkkR-1" source="5vlTtG9s8QNCjLJYxkkR-18" target="5vlTtG9s8QNCjLJYxkkR-18">
          <mxGeometry relative="1" as="geometry" />
        </mxCell>
        <mxCell id="5vlTtG9s8QNCjLJYxkkR-26" value="Actor" style="shape=umlActor;verticalLabelPosition=bottom;verticalAlign=top;html=1;outlineConnect=0;fontSize=15;fontColor=#FEFAE0;fillColor=#BC6C25;strokeColor=#DDA15E;sketch=1;" vertex="1" parent="5vlTtG9s8QNCjLJYxkkR-1">
          <mxGeometry x="567" y="82" width="30" height="170" as="geometry" />
        </mxCell>
        <mxCell id="5vlTtG9s8QNCjLJYxkkR-30" value="Two Basic Orientations " style="rounded=0;whiteSpace=wrap;html=1;fontSize=15;fontColor=#FEFAE0;fillColor=#BC6C25;strokeColor=#DDA15E;sketch=1;" vertex="1" parent="5vlTtG9s8QNCjLJYxkkR-1">
          <mxGeometry x="130" y="62" width="170" height="38" as="geometry" />
        </mxCell>
        <mxCell id="5vlTtG9s8QNCjLJYxkkR-32" value="" style="endArrow=none;html=1;fontSize=15;fontColor=#FEFAE0;entryX=0;entryY=1;entryDx=0;entryDy=0;strokeColor=#DDA15E;labelBackgroundColor=#283618;sketch=1;" edge="1" parent="5vlTtG9s8QNCjLJYxkkR-1" target="5vlTtG9s8QNCjLJYxkkR-30">
          <mxGeometry width="50" height="50" relative="1" as="geometry">
            <mxPoint x="700" y="320" as="sourcePoint" />
            <mxPoint x="450" y="290" as="targetPoint" />
            <Array as="points">
              <mxPoint x="130" y="320" />
            </Array>
          </mxGeometry>
        </mxCell>
        <mxCell id="5vlTtG9s8QNCjLJYxkkR-33" value="" style="endArrow=none;html=1;fontSize=15;fontColor=#FEFAE0;entryX=1;entryY=0;entryDx=0;entryDy=0;strokeColor=#DDA15E;labelBackgroundColor=#283618;sketch=1;" edge="1" parent="5vlTtG9s8QNCjLJYxkkR-1" target="5vlTtG9s8QNCjLJYxkkR-30">
          <mxGeometry width="50" height="50" relative="1" as="geometry">
            <mxPoint x="700" y="330" as="sourcePoint" />
            <mxPoint x="140" y="110" as="targetPoint" />
            <Array as="points">
              <mxPoint x="700" y="62" />
            </Array>
          </mxGeometry>
        </mxCell>
        <mxCell id="5vlTtG9s8QNCjLJYxkkR-34" value="" style="endArrow=none;html=1;fontSize=15;fontColor=#FEFAE0;strokeColor=#DDA15E;labelBackgroundColor=#283618;sketch=1;" edge="1" parent="5vlTtG9s8QNCjLJYxkkR-1">
          <mxGeometry width="50" height="50" relative="1" as="geometry">
            <mxPoint x="130" y="280" as="sourcePoint" />
            <mxPoint x="700" y="280" as="targetPoint" />
          </mxGeometry>
        </mxCell>
        <mxCell id="D0WZQ8BEbZDWift8Y6M_-0" value="Ashutosh" style="text;html=1;align=center;verticalAlign=middle;resizable=0;points=[];autosize=1;strokeColor=none;fontSize=10;fontColor=#FEFAE0;sketch=1;" vertex="1" parent="5vlTtG9s8QNCjLJYxkkR-1">
          <mxGeometry x="140" y="290" width="60" height="20" as="geometry" />
        </mxCell>
        <mxCell id="D0WZQ8BEbZDWift8Y6M_-1" value="May 2021" style="text;html=1;align=center;verticalAlign=middle;resizable=0;points=[];autosize=1;strokeColor=none;fontSize=10;fontColor=#FEFAE0;sketch=1;" vertex="1" parent="5vlTtG9s8QNCjLJYxkkR-1">
          <mxGeometry x="395" y="290" width="60" height="20" as="geometry" />
        </mxCell>
        <mxCell id="D0WZQ8BEbZDWift8Y6M_-2" value="Fig 2" style="text;html=1;align=center;verticalAlign=middle;resizable=0;points=[];autosize=1;strokeColor=none;fontSize=10;fontColor=#FEFAE0;sketch=1;" vertex="1" parent="5vlTtG9s8QNCjLJYxkkR-1">
          <mxGeometry x="620" y="290" width="40" height="20" as="geometry" />
        </mxCell>
      </root>
    </mxGraphModel>
  </diagram>
</mxfile>
